<svg width="207" height="208" viewBox="0 0 207 208" fill="none" xmlns="http://www.w3.org/2000/svg">
<g clip-path="url(#clip0_2523_10367)">
<path d="M206.689 0.303223H0.248047V206.744H206.689V0.303223Z" fill="#9999FF"/>
<path opacity="0.2" d="M96.614 218.034L58.7127 150.295L54.0315 99.2698L72.7644 70.1221H123.383L156.522 89.617L211.124 186.181L221.011 212.204L96.614 218.034Z" fill="#4552A3"/>
<path opacity="0.2" d="M93.1304 39.289L98.8881 42.5509C98.8881 36.1238 104.098 30.9104 110.529 30.9104L109.529 26.4268C114.391 29.2452 122.169 36.1238 122.169 42.5509C122.169 48.978 116.96 54.1915 110.529 54.1915C104.102 54.1915 94.5174 46.1637 93.1304 39.289Z" fill="#4552A3"/>
<path d="M136.943 157.585L125.991 138.703L116.436 122.224H92.719L106.972 147.13L117.919 166.266L125.625 179.729H149.785L136.943 157.585Z" fill="#4552A3"/>
<path d="M116.178 36.9423C116.178 30.5134 110.966 25.3018 104.537 25.3018C98.1081 25.3018 92.8965 30.5134 92.8965 36.9423C92.8965 43.3712 98.1081 48.5828 104.537 48.5828C110.966 48.5828 116.178 43.3712 116.178 36.9423Z" fill="#ADADFF"/>
<path d="M156.381 88.577C153.466 81.662 149.365 75.6341 144.079 70.4932C138.793 65.3564 132.592 61.3525 125.479 58.4858C122.548 57.3044 119.504 56.373 116.355 55.6794V77.5937C120.596 79.3234 124.33 81.7951 127.556 85.0207C130.818 88.2826 133.334 92.1131 135.116 96.508C136.894 100.907 137.785 105.77 137.785 111.108C137.785 116.447 136.894 121.333 135.116 125.781C133.338 130.228 130.818 134.059 127.556 137.268C127.052 137.768 126.528 138.24 125.995 138.703L136.946 157.586C139.426 155.848 141.761 153.92 143.934 151.791C149.22 146.602 153.345 140.554 156.308 133.635C159.272 126.72 160.756 119.208 160.756 111.108C160.756 103.008 159.296 95.496 156.385 88.581L156.381 88.577Z" fill="white"/>
<path d="M78.9376 58.4897C71.825 61.3565 65.6197 65.3603 60.3377 70.4972C55.0477 75.638 50.9471 81.6619 48.0359 88.5809C45.1207 95.4999 43.6611 103.008 43.6611 111.108C43.6611 119.208 45.1449 126.72 48.1085 133.635C51.072 140.554 55.1968 146.606 60.4829 151.791C65.7689 156.981 71.9702 161.005 79.0827 163.871C86.1953 166.738 93.9045 168.17 102.203 168.17C107.702 168.17 112.936 167.524 117.919 166.266L106.968 147.13C105.416 147.316 103.831 147.421 102.203 147.421C97.1624 147.421 92.4933 146.53 88.1952 144.751C83.897 142.973 80.119 140.477 76.857 137.268C73.5951 134.058 71.0751 130.228 69.2969 125.781C67.5188 121.333 66.6277 116.442 66.6277 111.108C66.6277 105.774 67.5188 100.907 69.2969 96.5079C71.0751 92.113 73.5951 88.2825 76.857 85.0206C80.119 81.7587 83.897 79.2669 88.1952 77.5371C89.6588 76.9484 91.1668 76.4686 92.7151 76.0815V54.8447C87.8806 55.5261 83.2841 56.7398 78.9295 58.4937L78.9376 58.4897Z" fill="white"/>
<path d="M102.206 54.1914C98.9485 54.1914 95.7874 54.4091 92.719 54.8406V122.22H116.351V55.6792C111.855 54.6873 107.142 54.1914 102.206 54.1914Z" fill="#ADADFF"/>
</g>
<defs>
<clipPath id="clip0_2523_10367">
<rect x="0.320557" y="0.907959" width="206.441" height="206.441" rx="20" fill="white"/>
</clipPath>
</defs>
</svg>
